<?xml version="1.0" encoding="utf-8"?>
<!-- Generator: Adobe Illustrator 16.0.0, SVG Export Plug-In . SVG Version: 6.00 Build 0)  -->
<!DOCTYPE svg PUBLIC "-//W3C//DTD SVG 1.1//EN" "http://www.w3.org/Graphics/SVG/1.1/DTD/svg11.dtd">
<svg version="1.1" id="Layer_1" xmlns="http://www.w3.org/2000/svg" xmlns:xlink="http://www.w3.org/1999/xlink" x="0px" y="0px"
	 width="22px" height="22px" viewBox="0 0 22 22" enable-background="new 0 0 22 22" xml:space="preserve">
<g>
	<path fill-rule="evenodd" clip-rule="evenodd" fill="#B9B9B9" d="M20.289,15.58c0.736-0.298,1.159-0.833,1.154-1.635
		c-0.005-0.854-0.47-1.394-1.286-1.669c0.047-0.031,0.071-0.05,0.101-0.065c0.811-0.415,1.212-1.217,1.018-2.041
		c-0.205-0.881-0.894-1.41-1.835-1.41c-1.475,0-2.948,0-4.423,0c-0.122,0-0.25-0.003-0.371-0.024
		c-0.409-0.076-0.529-0.242-0.411-0.648c0.183-0.629,0.394-1.25,0.593-1.874c0.351-1.104,0.686-2.21,0.622-3.388
		c-0.056-0.989-0.469-1.762-1.407-2.177c-0.57-0.252-0.984-0.061-1.139,0.54c-0.175,0.675-0.313,1.358-0.447,2.042
		c-0.184,0.919-0.517,1.749-1.129,2.488c-0.591,0.714-1.103,1.496-1.624,2.266C9.31,8.57,8.961,9.185,8.584,9.783
		c-0.531,0.842-1.31,1.326-2.26,1.557c-0.104,0.024-0.206,0.052-0.266,0.067c0,3.046,0,6.063,0,9.046
		c0.619,0.083,1.196,0.114,1.752,0.238c1.457,0.325,2.928,0.557,4.416,0.599c2.156,0.059,4.313,0.048,6.47,0.059
		c0.552,0.003,1.01-0.366,1.158-0.892c0.173-0.612-0.063-1.123-0.645-1.483c0.397-0.09,0.85-0.135,1.253-0.297
		c0.432-0.176,0.685-0.566,0.813-1.023C21.495,16.862,21.208,16.258,20.289,15.58z"/>
	<path fill-rule="evenodd" clip-rule="evenodd" fill="#B9B9B9" d="M4.704,10.559c-1.133,0-2.266,0-3.399,0.002
		c-0.491,0-0.749,0.259-0.749,0.755c0,3.131,0,6.263,0,9.394c0,0.501,0.249,0.75,0.752,0.75c1.116,0,2.232,0,3.347,0
		c0.591,0,0.809-0.218,0.811-0.815c0-1.542,0-3.083,0-4.621c0-1.565,0.002-3.132-0.001-4.698
		C5.465,10.802,5.219,10.561,4.704,10.559z M3.885,20.661c-0.548,0-0.985-0.457-0.979-1.013c0.009-0.543,0.453-0.992,0.982-0.992
		c0.548-0.004,0.983,0.445,0.981,1.009C4.87,20.232,4.443,20.664,3.885,20.661z"/>
</g>
</svg>
