<?xml version="1.0" encoding="utf-8"?>
<!-- Generator: Adobe Illustrator 16.0.0, SVG Export Plug-In . SVG Version: 6.00 Build 0)  -->
<!DOCTYPE svg PUBLIC "-//W3C//DTD SVG 1.1//EN" "http://www.w3.org/Graphics/SVG/1.1/DTD/svg11.dtd">
<svg version="1.1" id="Layer_1" xmlns="http://www.w3.org/2000/svg" xmlns:xlink="http://www.w3.org/1999/xlink" x="0px" y="0px"
	 width="22px" height="22px" viewBox="0 0 22 22" enable-background="new 0 0 22 22" xml:space="preserve">
<g>
	<path fill-rule="evenodd" clip-rule="evenodd" fill="#B9B9B9" d="M20.962,16.576c-0.121-0.006-0.245,0.01-0.362,0.037
		c-0.614,0.143-1.156,0.436-1.669,0.793c-0.293,0.205-0.575,0.432-0.886,0.613c-0.536,0.318-1.139,0.41-1.75,0.449
		c-0.574,0.033-1.148,0.035-1.722,0.086c-0.868,0.078-1.676-0.074-2.396-0.578c-0.224-0.154-0.414-0.359-0.646-0.564
		c0.093-0.029,0.13-0.047,0.169-0.051c0.873-0.109,1.734-0.068,2.579,0.197c0.634,0.201,1.23,0.105,1.767-0.279
		c0.252-0.182,0.457-0.416,0.451-0.764c-0.007-0.443-0.377-0.904-0.85-1.002c-0.76-0.152-1.522-0.289-2.287-0.424
		c-0.742-0.131-1.476-0.287-2.162-0.615c-0.486-0.23-0.978-0.455-1.474-0.662c-0.782-0.33-1.588-0.576-2.442-0.633
		c-0.694-0.047-1.337,0.135-1.976,0.389c-1.924,0.766-3.434,2.092-4.842,3.555c-0.157,0.162-0.146,0.26,0.001,0.461
		c0.661,0.896,1.32,1.793,1.98,2.689c0.215,0.291,0.313,0.326,0.62,0.141c0.277-0.168,0.536-0.365,0.797-0.559
		c1.272-0.941,2.612-1.031,3.996-0.287c1.065,0.572,2.177,1.027,3.324,1.395c0.385,0.125,0.776,0.238,1.192,0.182
		c0.299-0.041,0.599-0.076,0.899-0.096c0.916-0.051,1.832-0.084,2.746-0.146c0.574-0.039,1.143-0.146,1.655-0.422
		c0.617-0.33,1.229-0.674,1.833-1.031c0.63-0.371,1.249-0.768,1.729-1.33c0.157-0.186,0.291-0.41,0.366-0.641
		C21.763,17.012,21.452,16.598,20.962,16.576z"/>
	<path fill-rule="evenodd" clip-rule="evenodd" fill="#B9B9B9" d="M7.286,12.557c0.83,0.043,1.623,0.254,2.389,0.564
		c0.45,0.184,0.892,0.389,1.327,0.604c0.895,0.439,1.854,0.648,2.828,0.805c0.296,0.047,0.598,0.107,0.893,0.09
		c0.531-0.035,1.061-0.113,1.587-0.197c0.75-0.117,1.487-0.291,2.19-0.588c0.154-0.066,0.225-0.158,0.22-0.33
		c-0.027-0.813-0.232-1.577-0.575-2.31c-0.354-0.759-0.895-1.34-1.657-1.691c-0.751-0.345-1.516-0.665-2.274-0.996
		c-0.023-0.01-0.052-0.01-0.084-0.015c-0.016,0.064-0.032,0.12-0.046,0.176c-0.162,0.645-0.313,1.293-0.487,1.935
		c-0.168,0.61-0.377,1.206-0.76,1.723c-0.565,0.76-1.407,0.795-2.012,0.07c-0.129-0.152-0.236-0.33-0.331-0.507
		c-0.319-0.604-0.497-1.258-0.661-1.915C9.709,9.481,9.594,8.987,9.473,8.483C9.409,8.505,9.359,8.519,9.312,8.539
		C8.658,8.819,8.001,9.094,7.35,9.383c-0.425,0.188-0.822,0.425-1.158,0.755c-0.568,0.559-0.876,1.26-1.094,2.006
		c-0.083,0.285-0.131,0.58-0.203,0.906C4.993,13.01,5.047,12.99,5.1,12.969C5.803,12.697,6.524,12.518,7.286,12.557z"/>
	<path fill-rule="evenodd" clip-rule="evenodd" fill="#B9B9B9" d="M9.501,7.211c0.135,0.393,0.329,0.751,0.596,1.072
		c0.608,0.731,1.538,1.032,2.352,0.735c0.84-0.305,1.332-0.946,1.636-1.76c0.053-0.137,0.132-0.269,0.224-0.382
		c0.438-0.537,0.698-1.136,0.64-1.84c-0.013-0.155-0.048-0.342-0.146-0.449c-0.12-0.133-0.129-0.256-0.116-0.406
		c0.006-0.075,0.007-0.15,0.012-0.226c-0.009-0.14-0.006-0.28-0.023-0.417c-0.06-0.438-0.123-0.876-0.469-1.204
		c-0.03-0.029-0.044-0.08-0.053-0.124c-0.088-0.483-0.363-0.817-0.806-1.02c-0.728-0.332-1.483-0.43-2.272-0.283
		C9.969,1.113,9.18,1.87,9,2.971C8.928,3.415,8.951,3.874,8.927,4.325C8.925,4.378,8.918,4.452,8.884,4.481
		C8.692,4.637,8.661,4.849,8.647,5.074c-0.04,0.714,0.23,1.311,0.681,1.843C9.401,7.003,9.465,7.104,9.501,7.211z"/>
</g>
</svg>
