<?xml version="1.0" encoding="utf-8"?>
<!-- Generator: Adobe Illustrator 16.0.0, SVG Export Plug-In . SVG Version: 6.00 Build 0)  -->
<!DOCTYPE svg PUBLIC "-//W3C//DTD SVG 1.1//EN" "http://www.w3.org/Graphics/SVG/1.1/DTD/svg11.dtd">
<svg version="1.1" id="Layer_1" xmlns="http://www.w3.org/2000/svg" xmlns:xlink="http://www.w3.org/1999/xlink" x="0px" y="0px"
	 width="22px" height="22px" viewBox="0 0 22 22" enable-background="new 0 0 22 22" xml:space="preserve">
<path fill-rule="evenodd" clip-rule="evenodd" fill="#B9B9B9" d="M5.291,21.66c0-3.517,0-6.996,0-10.498c0.191,0,0.369,0,0.579,0
	c0-0.124,0-0.226,0-0.328c0-1.47-0.001-2.94-0.001-4.41c0-0.518,0.105-0.625,0.619-0.625c0.588,0,1.176-0.005,1.764,0.004
	c0.194,0.003,0.325-0.064,0.438-0.22c0.351-0.48,0.724-0.945,1.063-1.433c0.202-0.29,0.445-0.408,0.796-0.406
	c1.899,0.013,3.8,0.01,5.698,0.012c0.421,0,0.421,0,0.423-0.414c0.002-0.143,0-0.284,0-0.446c-0.137-0.01-0.255-0.025-0.376-0.025
	C13.896,2.869,11.5,2.87,9.103,2.863c-0.246-0.001-0.408,0.084-0.549,0.28C8.197,3.637,7.816,4.116,7.461,4.611
	c-0.16,0.224-0.354,0.326-0.629,0.32C6.238,4.919,5.642,4.922,5.046,4.918C4.763,4.917,4.735,4.945,4.735,5.226
	c0.001,1.741,0.001,3.482,0.009,5.224c0,0.121,0.056,0.243,0.09,0.363c0.055,0.19,0.161,0.38,0.162,0.571
	c0.01,3.347,0.006,6.693,0.005,10.04c0,0.072,0,0.145,0,0.217c-0.021,0.012-0.042,0.023-0.063,0.035
	c-0.11-0.101-0.244-0.186-0.327-0.306c-1.207-1.766-2.409-3.534-3.601-5.309c-0.098-0.146-0.156-0.35-0.157-0.526
	c-0.01-2.699-0.007-5.397-0.007-8.096c0-0.075,0-0.152,0.019-0.225C0.955,6.866,1.33,6.761,1.582,7.021
	c0.172,0.177,0.326,0.37,0.534,0.608c0-0.148,0-0.233,0-0.319c0-1.357,0-2.714,0-4.071c0-0.076-0.001-0.151,0.001-0.227
	c0.014-0.396,0.16-0.548,0.555-0.553c0.61-0.007,1.221-0.015,1.831,0.003C4.779,2.47,4.96,2.391,5.119,2.154
	c0.347-0.52,0.728-1.017,1.088-1.526c0.147-0.208,0.337-0.304,0.593-0.304c2.751,0.003,5.502,0.001,8.255,0.002
	c0.417,0,0.552,0.126,0.563,0.553c0.01,0.376,0.002,0.752,0.002,1.161c0.091,0,0.164,0,0.235,0c0.386,0,0.769-0.003,1.152,0.002
	c0.324,0.005,0.467,0.144,0.475,0.472c0.01,0.332,0.014,0.664,0,0.995c-0.008,0.194,0.073,0.251,0.253,0.247
	c0.33-0.006,0.662-0.006,0.995,0.003c0.306,0.008,0.423,0.11,0.456,0.416c0.024,0.209,0.017,0.421,0.017,0.632
	c0.002,2.028,0.004,4.056,0.006,6.083c0,0.082,0,0.164,0,0.277c0.387,0,0.763,0,1.137,0c0.747,0,0.807,0.061,0.807,0.811
	c0,3.008,0,6.015,0,9.023c0,0.522-0.131,0.652-0.654,0.652c-4.991,0.004-9.981,0.005-14.971,0.007
	C5.454,21.66,5.38,21.66,5.291,21.66z M18.342,4.577c-0.102,0-0.174,0-0.249,0c-2.427,0.001-4.854,0.004-7.281,0
	c-0.227,0-0.384,0.084-0.516,0.261c-0.362,0.491-0.74,0.969-1.094,1.467c-0.171,0.24-0.381,0.342-0.669,0.335
	C8.111,6.629,7.689,6.632,7.268,6.63c-0.178,0-0.355,0-0.534,0c0,1.53,0,3.011,0,4.498c3.875,0,7.736,0,11.608,0
	C18.342,8.947,18.342,6.78,18.342,4.577z M14.095,17.656c0.648,0,1.259-0.003,1.868,0.002c0.216,0.001,0.32-0.087,0.32-0.31
	c-0.004-0.64,0.002-1.28-0.004-1.922c-0.002-0.26-0.062-0.313-0.328-0.314c-0.522-0.004-1.042-0.002-1.563-0.004
	c-0.093-0.002-0.188-0.014-0.294-0.021c0-0.629,0.004-1.231,0-1.834c-0.002-0.267-0.079-0.351-0.328-0.352
	c-0.633-0.006-1.268-0.001-1.9-0.002c-0.216-0.001-0.315,0.098-0.313,0.316c0.003,0.542-0.001,1.085-0.004,1.628
	c0,0.081-0.007,0.161-0.012,0.265c-0.101,0-0.182,0-0.263,0c-0.528,0-1.055-0.003-1.583,0.002c-0.264,0.002-0.34,0.075-0.342,0.335
	c-0.003,0.625-0.003,1.251,0,1.877c0.002,0.271,0.058,0.326,0.337,0.33c0.535,0.006,1.07,0.004,1.605,0.006
	c0.079,0,0.158,0.007,0.257,0.013c0,0.107,0,0.189,0,0.27c0.001,0.521,0,1.041,0.005,1.561c0.003,0.311,0.06,0.364,0.376,0.364
	c0.558,0.002,1.117,0.001,1.674,0.001c0.446,0,0.488-0.042,0.488-0.489C14.097,18.814,14.095,18.251,14.095,17.656z M2.974,3.308
	C2.971,3.389,2.966,3.44,2.966,3.492C2.958,4.984,2.964,6.476,2.939,7.968C2.927,8.714,3.374,9.173,3.888,9.663
	c0.011-0.175,0.027-0.309,0.027-0.442C3.918,7.683,3.917,6.146,3.92,4.608c0.001-0.377,0.121-0.498,0.495-0.521
	c0.068-0.004,0.136-0.003,0.204-0.002c0.632,0.002,1.266,0,1.898,0.01c0.199,0.002,0.338-0.066,0.457-0.229
	C7.318,3.39,7.689,2.933,8.023,2.451C8.233,2.146,8.49,2.027,8.857,2.03c1.876,0.012,3.752,0.007,5.629,0.008
	c0.087,0,0.176,0,0.271,0c0-0.3,0-0.567,0-0.845c-0.081-0.005-0.146-0.012-0.214-0.012c-2.478,0-4.957,0.002-7.436,0
	c-0.187,0-0.31,0.077-0.414,0.222C6.312,1.934,5.92,2.46,5.544,2.996C5.387,3.222,5.192,3.317,4.916,3.312
	C4.277,3.299,3.637,3.308,2.974,3.308z"/>
</svg>
