<?xml version="1.0" encoding="utf-8"?>
<!-- Generator: Adobe Illustrator 16.0.0, SVG Export Plug-In . SVG Version: 6.00 Build 0)  -->
<!DOCTYPE svg PUBLIC "-//W3C//DTD SVG 1.1//EN" "http://www.w3.org/Graphics/SVG/1.1/DTD/svg11.dtd">
<svg version="1.1" id="Layer_1" xmlns="http://www.w3.org/2000/svg" xmlns:xlink="http://www.w3.org/1999/xlink" x="0px" y="0px"
	 width="22px" height="22px" viewBox="0 0 22 22" enable-background="new 0 0 22 22" xml:space="preserve">
<g>
	<path fill="#B9B9B9" d="M19.34,9.167c0-0.143-0.015-0.288-0.041-0.429C19.162,8,18.505,7.385,17.811,7.357
		c-0.557-0.022-1.112-0.021-1.668-0.037c-0.146-0.005-0.246,0.051-0.322,0.174c-0.266,0.425-0.533,0.847-0.801,1.271
		c-0.019,0.031-0.023,0.07-0.043,0.122c0.809,0,1.599,0,2.388,0c0.413,0,0.45,0.036,0.45,0.441c0,3.309,0,6.619,0,9.929
		c0,0.386-0.033,0.418-0.426,0.418c-4.264,0-8.528,0-12.792,0c-0.377,0-0.408-0.03-0.408-0.411c0-3.316,0-6.634,0-9.951
		c0-0.389,0.038-0.425,0.422-0.425c0.898,0,1.798,0,2.698,0c0.093,0,0.187,0,0.337,0C7.195,8.28,6.696,7.812,6.158,7.384
		c-0.057-0.046-0.153-0.06-0.232-0.061C5.424,7.317,4.923,7.308,4.423,7.324c-1.012,0.03-1.766,0.81-1.766,1.822
		c-0.002,3.42-0.001,6.84,0.002,10.258C2.66,20.495,3.412,21.24,4.5,21.24c4.326,0,8.65-0.012,12.977,0.009
		c0.965,0.004,1.869-0.706,1.867-1.864C19.338,15.979,19.342,12.573,19.34,9.167z"/>
	<path fill="#B9B9B9" d="M5.869,4.705C7.313,5.689,8.501,6.91,9.385,8.427c0.403,0.693,0.861,1.354,1.306,2.021
		c0.324,0.486,0.797,0.577,1.245,0.197c0.239-0.202,0.434-0.475,0.594-0.748c0.34-0.579,0.636-1.182,0.965-1.768
		c1.148-2.044,2.457-3.978,4.054-5.705c0.388-0.418,0.787-0.824,1.183-1.233c0.097-0.1,0.176-0.203,0.088-0.343
		c-0.094-0.151-0.225-0.092-0.348-0.05c-0.732,0.244-1.426,0.567-2.062,1.005c-1.66,1.146-3.05,2.571-4.265,4.171
		c-0.311,0.408-0.599,0.832-0.909,1.266c-0.119-0.137-0.224-0.261-0.332-0.384c-0.519-0.594-0.991-1.233-1.639-1.701
		C8.209,4.393,7.058,3.918,5.722,4.051c-0.1,0.01-0.262,0.096-0.268,0.157C5.446,4.305,5.532,4.424,5.605,4.51
		C5.675,4.59,5.778,4.643,5.869,4.705z"/>
	<path fill="#B9B9B9" d="M15.634,16.46c-1.873-0.002-3.747-0.001-5.621-0.001c-1.118,0.001-2.237-0.002-3.355,0.003
		c-0.549,0.003-0.967,0.442-0.959,0.992c0.008,0.567,0.44,0.976,1.051,0.976c1.469,0.004,2.937,0.002,4.405,0.002
		c0.777,0,1.55,0,2.326,0c0.707,0,1.414,0.004,2.121-0.002c0.724-0.008,1.184-0.568,1.021-1.236
		C16.518,16.749,16.132,16.46,15.634,16.46z"/>
	<path fill="#B9B9B9" d="M15.641,12.759c-0.97-0.007-1.938-0.009-2.904,0.007c-0.242,0.004-0.496,0.051-0.723,0.135
		c-0.457,0.17-0.894,0.154-1.342-0.017c-0.17-0.063-0.357-0.118-0.537-0.12c-1.153-0.01-2.307-0.009-3.46-0.004
		c-0.422,0.002-0.794,0.279-0.928,0.664c-0.225,0.65,0.244,1.305,0.946,1.307c1.49,0.002,2.979,0,4.469,0
		c1.477,0,2.953,0.004,4.429-0.004c0.173-0.002,0.358-0.033,0.517-0.104c0.412-0.181,0.617-0.631,0.522-1.074
		C16.531,13.072,16.157,12.764,15.641,12.759z"/>
</g>
</svg>
