<?xml version="1.0" encoding="utf-8"?>
<!-- Generator: Adobe Illustrator 16.0.0, SVG Export Plug-In . SVG Version: 6.00 Build 0)  -->
<!DOCTYPE svg PUBLIC "-//W3C//DTD SVG 1.1//EN" "http://www.w3.org/Graphics/SVG/1.1/DTD/svg11.dtd">
<svg version="1.1" id="Layer_1" xmlns="http://www.w3.org/2000/svg" xmlns:xlink="http://www.w3.org/1999/xlink" x="0px" y="0px"
	 width="20px" height="20px" viewBox="0 0 20 20" enable-background="new 0 0 20 20" xml:space="preserve">
<g>
	<path fill-rule="evenodd" clip-rule="evenodd" fill="#8A8A8A" d="M20,11.188c-0.045,0-0.089-0.002-0.134-0.002
		c-5.367,0-10.732,0-16.099,0c-0.046,0-0.093,0-0.171,0c0.966,0.933,1.908,1.843,2.858,2.763c-0.411,0.396-0.813,0.785-1.234,1.192
		c-1.656-1.592-3.308-3.183-4.973-4.784c1.663-1.603,3.318-3.196,4.982-4.799c0.407,0.394,0.812,0.785,1.226,1.185
		c-0.95,0.918-1.893,1.828-2.853,2.755c0.056,0.002,0.086,0.005,0.117,0.005c5.427,0,10.854,0,16.281,0
		C20,10.064,20,10.625,20,11.188z"/>
	<path fill-rule="evenodd" clip-rule="evenodd" fill="#8A8A8A" d="M20,4.625c-0.053,0-0.105-0.002-0.158-0.002
		c-3.361,0-6.722,0-10.083,0c-0.052,0-0.105,0-0.176,0c0-0.564,0-1.124,0-1.681c3.472,0,6.944,0,10.417,0
		C20,3.502,20,4.063,20,4.625z"/>
	<path fill-rule="evenodd" clip-rule="evenodd" fill="#8A8A8A" d="M10.437,17.75c0-0.556,0-1.111,0-1.683c0.07,0,0.121,0,0.173,0
		c3.078,0,6.154,0,9.232,0c0.053,0,0.105-0.002,0.158-0.002c0,0.561,0,1.123,0,1.685C16.812,17.75,13.625,17.75,10.437,17.75z"/>
</g>
</svg>
