<?xml version="1.0" encoding="utf-8"?>
<!-- Generator: Adobe Illustrator 16.0.0, SVG Export Plug-In . SVG Version: 6.00 Build 0)  -->
<!DOCTYPE svg PUBLIC "-//W3C//DTD SVG 1.1//EN" "http://www.w3.org/Graphics/SVG/1.1/DTD/svg11.dtd">
<svg version="1.1" id="Layer_1" xmlns="http://www.w3.org/2000/svg" xmlns:xlink="http://www.w3.org/1999/xlink" x="0px" y="0px"
	 width="569.072px" height="87.932px" viewBox="0 0 569.072 87.932" enable-background="new 0 0 569.072 87.932"
	 xml:space="preserve">
<g>
	<path fill-rule="evenodd" clip-rule="evenodd" fill="#D6483C" d="M54.733,64.454c-7.529,0-15.057,0-22.584,0
		c-2.168-0.002-3.367-1.19-3.367-3.345c-0.001-12.76-0.001-25.517,0-38.275c0-2.205,1.188-3.38,3.418-3.38
		c15.028,0,30.056,0,45.084,0c2.233,0,3.398,1.159,3.402,3.389c0,12.758,0,25.517-0.004,38.275c0,2.168-1.182,3.334-3.365,3.336
		C69.791,64.454,62.262,64.454,54.733,64.454z M54.747,29.449c-7.156,0.005-12.999,5.829-13.01,12.968
		c-0.011,7.126,5.856,13.046,12.947,13.059c7.153,0.015,13.074-5.902,13.052-13.04C67.715,35.277,61.878,29.445,54.747,29.449z"/>
	<path fill-rule="evenodd" clip-rule="evenodd" fill="#D6483C" d="M54.911,44.761c-1.601,1.578-3.089,3.045-4.569,4.504
		c-0.787-0.825-1.493-1.562-2.242-2.347c1.403-1.386,2.903-2.865,4.489-4.428c-1.63-1.562-3.135-3.004-4.666-4.471
		c0.878-0.823,1.625-1.521,2.42-2.265c1.397,1.402,2.873,2.882,4.359,4.374c1.482-1.524,2.94-3.021,4.34-4.46
		c0.835,0.839,1.556,1.56,2.321,2.327c-1.379,1.371-2.875,2.859-4.328,4.303c1.576,1.57,3.057,3.043,4.5,4.483
		c-0.846,0.822-1.573,1.531-2.328,2.27C57.829,47.674,56.336,46.186,54.911,44.761z"/>
</g>
<g>
	<path fill-rule="evenodd" clip-rule="evenodd" fill="#EF7E22" d="M177.465,64.452c-7.529,0-15.059,0.002-22.586,0
		c-2.146,0-3.33-1.148-3.33-3.27c-0.005-12.818-0.005-25.633,0-38.448c0-2.126,1.185-3.279,3.324-3.279
		c14.187-0.002,29.074-0.002,45.258,0c2.079,0,3.321,1.215,3.323,3.313c0.009,12.787,0.009,25.574,0,38.361
		c-0.002,2.137-1.242,3.322-3.405,3.322C192.522,64.454,184.995,64.452,177.465,64.452z M187.921,37.201c0,5.3,0,10.484,0,15.654
		c-4.895,0-9.729,0-14.588,0c0-1.621,0.015-3.17-0.005-4.719c-0.017-1.385-0.855-2.465-2.207-2.791
		c-0.064,0.418-0.176,0.83-0.178,1.24c-0.02,2.297-0.015,4.598-0.015,6.895c0,1.613,0.372,1.996,1.963,1.996
		c5.198,0.004,10.4,0.004,15.599,0c1.578,0,1.944-0.357,1.944-1.914c-0.003-5.629-0.02-11.261-0.011-16.891
		c0-0.834-0.282-1.497-0.864-2.072c-1.391-1.371-2.771-2.756-4.156-4.131c-0.708-0.704-1.558-1.029-2.561-1.022
		c-3.418,0.015-6.836,0.004-10.257,0.018c-1.195,0.004-1.923,0.687-1.598,1.67c0.257,0.783,0.762,1.529,1.312,2.156
		c0.485,0.554,0.917,0.334,1.009-0.404c0.034-0.271,0.05-0.545,0.071-0.807c3.14,0,6.198,0,9.341,0c0,1.234-0.036,2.411,0.011,3.583
		c0.047,1.186,0.404,1.508,1.6,1.534C185.508,37.22,186.683,37.201,187.921,37.201z M181.654,45.661
		c-3.75-3.625-7.533-7.286-11.33-10.957c-0.855,0.909-1.813,1.923-2.702,2.866c3.682,3.658,7.423,7.375,11.067,10.999
		C179.594,47.683,180.572,46.724,181.654,45.661z M169.936,33.652c-0.313-0.295-0.607-0.56-0.89-0.84
		c-0.543-0.546-1.061-0.587-1.606,0.017c-0.44,0.485-0.931,0.927-1.382,1.403c-0.755,0.794-0.742,1.13-0.023,1.964
		c0.218,0.257,0.372,0.566,0.518,0.791C167.789,35.768,168.824,34.75,169.936,33.652z M177.431,40.401
		c1.427,1.479,1.427,1.476,3.239,1.47c1.059-0.002,2.117-0.007,3.174,0.004c0.571,0.007,1.087-0.106,1.1-0.782
		c0.011-0.685-0.505-0.798-1.076-0.796c-1.916,0.009-3.833,0.002-5.75,0.009C177.911,40.305,177.706,40.36,177.431,40.401z
		 M182.261,46.622c-0.976,0.988-1.891,1.912-2.847,2.881c1.217,0.332,2.46,0.67,3.853,1.047
		C182.903,49.132,182.586,47.894,182.261,46.622z M180.518,43.403c0.956,1.449,2.192,1.797,3.653,1.414
		c0.289-0.074,0.516-0.398,0.771-0.607c-0.255-0.27-0.494-0.748-0.769-0.77C182.993,43.354,181.801,43.403,180.518,43.403z"/>
</g>
<g>
	<path fill-rule="evenodd" clip-rule="evenodd" fill="#54AB62" d="M238.885,19.454c7.527,0,15.057-0.001,22.584,0
		c2.203,0.001,3.371,1.138,3.373,3.318c0.004,12.788,0.004,25.575,0,38.362c-0.002,2.182-1.168,3.318-3.369,3.318
		c-15.059,0.002-30.115,0.002-45.172,0c-2.141,0-3.366-1.203-3.366-3.359c-0.007-12.758-0.007-25.516,0-38.274
		c0-2.155,1.225-3.363,3.362-3.363C223.826,19.453,231.354,19.454,238.885,19.454z M231.107,51.603
		c5.723-3.221,11.287-6.354,16.852-9.488c-0.014-0.102-0.027-0.202-0.041-0.303c-5.557-3.125-11.113-6.25-16.811-9.455
		C231.107,38.816,231.107,45.104,231.107,51.603z"/>
</g>
<g>
	<path fill-rule="evenodd" clip-rule="evenodd" fill="#EF7E22" d="M300.281,19.466c7.641,0,15.281,0.015,22.922-0.012
		c1.545-0.005,3.021,1.418,3.02,2.995c-0.027,13.012-0.014,26.024-0.02,39.036c0,1.346-0.846,2.459-2.115,2.803
		c-0.334,0.092-0.689,0.154-1.035,0.154c-15.166,0.008-30.332,0.002-45.498,0.012c-1.43,0.002-2.426-0.629-3-1.904
		c-0.16-0.359-0.219-0.793-0.223-1.193c-0.018-2.656-0.01-5.314-0.01-7.971c0-10.225,0-20.451,0-30.677
		c0-1.34,0.537-2.376,1.775-2.949c0.395-0.184,0.867-0.281,1.307-0.282C285.029,19.461,292.656,19.465,300.281,19.466z
		 M292.791,32.581c0,6.273,0,12.512,0,18.736c1.73,0,3.43,0,5.119,0c0-6.262,0-12.49,0-18.736
		C296.197,32.581,294.51,32.581,292.791,32.581z M302.605,51.327c1.719,0,3.418,0,5.125,0c0-6.262,0-12.5,0-18.733
		c-1.729,0-3.428,0-5.125,0C302.605,38.854,302.605,45.081,302.605,51.327z"/>
</g>
<g>
	<path fill-rule="evenodd" clip-rule="evenodd" fill="#EF7E22" d="M361.611,64.444c-7.641,0-15.279-0.01-22.92,0.01
		c-1.262,0.004-2.617-1.057-2.822-2.109c-0.053-0.287-0.146-0.576-0.148-0.863c-0.008-13.025-0.008-26.052-0.006-39.077
		c0.002-1.311,0.867-2.442,2.131-2.783c0.336-0.092,0.691-0.155,1.037-0.155c15.18-0.007,30.357-0.004,45.539-0.013
		c1.363-0.002,2.32,0.609,2.912,1.784c0.188,0.374,0.252,0.845,0.252,1.273c0.014,8.142,0.012,16.284,0.012,24.427
		c0,4.826,0,9.65,0,14.477c-0.002,1.387-0.814,2.475-2.158,2.869c-0.307,0.09-0.633,0.154-0.949,0.154
		C376.863,64.446,369.238,64.444,361.611,64.444z M353.484,56.485c7.83,0,15.617,0,23.395,0c0-5.066,0-10.098,0-15.152
		c-1.795,0-3.561-0.015-5.326,0.012c-0.396,0.005-0.615-0.169-0.818-0.448c-0.41-0.564-0.809-1.142-1.248-1.685
		c-0.115-0.144-0.361-0.261-0.549-0.261c-2.484-0.018-4.969-0.009-7.453-0.018c-0.279,0-0.457,0.077-0.619,0.318
		c-0.381,0.561-0.807,1.089-1.197,1.644c-0.217,0.304-0.455,0.457-0.859,0.449c-1.609-0.029-3.219-0.012-4.828-0.012
		c-0.162,0-0.326,0-0.496,0C353.484,46.421,353.484,51.431,353.484,56.485z M348.816,28.422c0,0.739-0.012,1.426,0.012,2.109
		c0.004,0.095,0.18,0.259,0.281,0.264c0.561,0.025,1.117,0.016,1.678,0.011c0.287-0.002,0.432-0.131,0.422-0.446
		c-0.018-0.529-0.012-1.061,0-1.592c0.004-0.225-0.061-0.352-0.311-0.349C350.225,28.425,349.553,28.422,348.816,28.422z
		 M360.535,28.423c-0.744,0-1.443-0.011-2.141,0.013c-0.088,0.004-0.242,0.185-0.244,0.29c-0.025,0.543,0.002,1.09-0.016,1.635
		c-0.01,0.314,0.129,0.446,0.422,0.448c0.547,0.001,1.092,0.016,1.635-0.013c0.119-0.007,0.324-0.173,0.328-0.271
		C360.549,29.84,360.535,29.155,360.535,28.423z M348.846,40.13c0.711,0,1.436,0.009,2.158-0.015
		c0.072-0.001,0.188-0.205,0.191-0.318c0.02-0.56,0.029-1.121-0.004-1.678c-0.008-0.13-0.195-0.349-0.307-0.354
		c-0.668-0.034-1.338-0.016-2.039-0.016C348.846,38.553,348.846,39.308,348.846,40.13z M353.475,28.451
		c0,0.705-0.018,1.363,0.014,2.021c0.008,0.117,0.213,0.313,0.338,0.32c0.557,0.036,1.119,0.036,1.674,0.001
		c0.133-0.009,0.352-0.194,0.359-0.306c0.031-0.669,0.016-1.339,0.016-2.037C355.061,28.451,354.295,28.451,353.475,28.451z
		 M365.195,28.422c-0.676,0-1.307,0.014-1.932-0.007c-0.35-0.011-0.453,0.149-0.449,0.462c0.008,0.502,0.008,1.003,0,1.505
		c-0.004,0.28,0.125,0.422,0.4,0.424c0.559,0.005,1.117-0.005,1.678,0.005c0.227,0.005,0.305-0.092,0.303-0.304
		C365.191,29.835,365.195,29.161,365.195,28.422z M348.844,35.476c0.699,0,1.369,0.016,2.037-0.016
		c0.115-0.005,0.303-0.221,0.311-0.351c0.033-0.558,0.031-1.119,0-1.676c-0.006-0.12-0.178-0.329-0.279-0.334
		c-0.682-0.03-1.367-0.014-2.068-0.014C348.844,33.899,348.844,34.665,348.844,35.476z M348.814,44.8
		c0.736,0,1.42-0.004,2.104,0.002c0.227,0.002,0.295-0.107,0.291-0.32c-0.012-0.529-0.027-1.061,0.004-1.588
		c0.018-0.327-0.146-0.453-0.41-0.462c-0.545-0.018-1.09-0.015-1.633,0.001c-0.209,0.007-0.369,0.091-0.359,0.371
		C348.828,43.446,348.814,44.089,348.814,44.8z M367.582,28.438c0,0.721-0.014,1.394,0.012,2.066
		c0.004,0.104,0.162,0.286,0.256,0.29c0.59,0.027,1.178,0.02,1.766,0.004c0.078-0.002,0.223-0.119,0.225-0.186
		c0.016-0.725,0.01-1.447,0.01-2.174C369.07,28.438,368.355,28.438,367.582,28.438z M372.252,28.445c0,0.719-0.012,1.404,0.01,2.087
		c0.004,0.094,0.176,0.259,0.273,0.263c0.572,0.025,1.145,0.023,1.715,0c0.098-0.003,0.268-0.153,0.27-0.239
		c0.021-0.696,0.012-1.394,0.012-2.111C373.756,28.445,373.033,28.445,372.252,28.445z M372.273,35.476
		c0.693,0,1.338,0.009,1.98-0.009c0.09-0.002,0.256-0.123,0.258-0.191c0.02-0.723,0.012-1.446,0.012-2.161c-0.801,0-1.523,0-2.25,0
		C372.273,33.906,372.273,34.662,372.273,35.476z M372.285,37.747c0,0.82,0,1.595,0,2.361c0.762,0,1.484,0,2.246,0
		c0-0.716,0.012-1.403-0.012-2.088c-0.004-0.093-0.182-0.257-0.283-0.261C373.607,37.735,372.979,37.747,372.285,37.747z
		 M351.197,47.228c-0.809,0-1.582,0-2.355,0c0,0.754,0,1.479,0,2.182c0.803,0,1.576,0,2.355,0
		C351.197,48.671,351.197,47.981,351.197,47.228z"/>
	<path fill-rule="evenodd" clip-rule="evenodd" fill="#EF7E22" d="M355.898,54.103c0-3.504,0-6.975,0-10.496c0.48,0,0.936,0,1.389,0
		c0.963,0,1.924-0.006,2.887,0c0.262,0.004,0.428-0.057,0.594-0.303c0.4-0.586,0.854-1.138,1.311-1.681
		c0.117-0.141,0.336-0.273,0.51-0.275c1.752-0.02,3.504-0.011,5.256-0.013c0.221,0,0.357,0.045,0.508,0.27
		c0.396,0.604,0.857,1.168,1.324,1.723c0.123,0.143,0.363,0.262,0.555,0.266c1.305,0.023,2.611,0.018,3.92,0.008
		c0.273-0.002,0.381,0.074,0.381,0.363c-0.008,3.332-0.006,6.664-0.008,9.994c0,0.039-0.021,0.078-0.039,0.145
		C368.301,54.103,362.117,54.103,355.898,54.103z M369.855,48.321c0.063-2.686-2.219-4.705-4.65-4.697
		c-2.469,0.006-4.672,1.996-4.672,4.68c0,2.773,2.223,4.713,4.688,4.719C367.641,53.026,369.918,51.024,369.855,48.321z"/>
	<path fill-rule="evenodd" clip-rule="evenodd" fill="#EF7E22" d="M362.912,48.317c-0.105-1.395,1.223-2.365,2.313-2.326
		c1.471,0.053,2.338,1.168,2.33,2.34c-0.01,1.211-0.889,2.303-2.381,2.326C364.092,50.675,362.818,49.733,362.912,48.317z"/>
</g>
<g>
	<path fill-rule="evenodd" clip-rule="evenodd" fill="#EF7E22" d="M142.076,22.896c-0.002-2.262-1.189-3.441-3.457-3.441
		c-15-0.001-30-0.001-45-0.001c-2.316,0.001-3.454,1.117-3.455,3.412c-0.002,12.729-0.002,25.459,0,38.189
		c0.001,2.251,1.148,3.397,3.383,3.398c7.499,0.001,14.999,0,22.499,0c7.528,0,15.058,0,22.585,0
		c2.26-0.001,3.443-1.184,3.445-3.455C142.078,48.299,142.078,35.598,142.076,22.896z M112.14,29.315
		c0.264-0.015,0.491-0.061,0.709-0.032c0.608,0.08,0.946-0.124,1.253-0.711c0.748-1.434,3.065-1.561,3.874-0.149
		c0.454,0.794,0.957,0.913,1.697,0.858c0.111-0.009,0.225,0.021,0.398,0.041c0,0.705,0,1.403,0,2.155c-2.645,0-5.262,0-7.932,0
		C112.14,30.753,112.14,30.056,112.14,29.315z M125.993,55.563c-0.02,0.287-0.464,0.62-0.787,0.788
		c-0.282,0.146-0.671,0.12-1.012,0.121c-5.373,0.006-10.747,0.005-16.12,0.003c-1.639,0-1.977-0.334-1.977-1.965
		c-0.003-7.557-0.003-15.114-0.001-22.671c0.001-1.592,0.31-1.892,1.923-1.895c0.801-0.002,1.604-0.001,2.523-0.001
		c0,1.031,0,2.018,0,3.063c3.721,0,7.322,0,11.026,0c0-0.985,0-1.974,0-3.036c1.241,0,2.382-0.035,3.521,0.015
		c0.586,0.026,0.951,0.449,0.955,1.035c0.02,2.781,0.01,5.563,0.01,8.448c-1.592-0.113-2.619,0.822-3.634,1.557
		c-0.808-0.48-1.494-1.048-2.282-1.329c-2.788-0.994-5.697,0.896-6.168,3.903c-0.258,1.646,0.104,3.112,1.076,4.467
		c1.809,2.514,4.075,4.497,6.75,6.042c0.478,0.276,0.791,0.244,1.209-0.109c0.938-0.792,1.925-1.526,3.024-2.389
		C126.03,53.024,126.078,54.299,125.993,55.563z M125.548,49.099c-1.088,0.926-2.143,1.89-3.207,2.835
		c-2.367-1.48-4.334-3.212-5.776-5.478c-0.758-1.191-0.755-2.454-0.035-3.662c0.81-1.361,2.614-1.604,3.782-0.542
		c0.677,0.615,1.332,1.254,1.99,1.875c1.265-0.787,1.934-2.421,3.716-2.515c0,1.604,0,3.116,0,4.726
		c-1.122,0.057-2.364-0.353-2.831,1.38c-0.647-1.229-1.181-2.24-1.77-3.358c-0.852,1.142-1.422,2.634-3.285,1.864
		c0,0.478,0,0.772,0,1.168c1.103-0.152,2.371,0.534,3.157-0.944c0.569,1.097,1.092,2.104,1.672,3.223
		c0.351-0.486,0.696-0.862,0.919-1.3c0.445-0.871,1.104-1.173,2.098-0.893C126.169,48.075,126.114,48.617,125.548,49.099z"/>
	<path fill-rule="evenodd" clip-rule="evenodd" fill="#EF7E22" d="M123.044,35.925c-4.66,0-9.262,0-13.887,0
		c0,0.695,0,1.322,0,2.024c4.688,0,9.289,0,13.887,0C123.044,37.23,123.044,36.584,123.044,35.925z"/>
	<path fill-rule="evenodd" clip-rule="evenodd" fill="#EF7E22" d="M109.148,53.854c2.123,0,4.14,0,6.176,0c0-0.707,0-1.354,0-2.015
		c-2.078,0-4.111,0-6.176,0C109.148,52.552,109.148,53.174,109.148,53.854z"/>
	<path fill-rule="evenodd" clip-rule="evenodd" fill="#EF7E22" d="M112.351,41.233c-1.08,0-2.117,0-3.188,0c0,0.672,0,1.291,0,1.97
		c1.113,0,2.147,0,3.188,0C112.351,42.509,112.351,41.893,112.351,41.233z"/>
	<path fill-rule="evenodd" clip-rule="evenodd" fill="#EF7E22" d="M111.867,48.555c0-0.7,0-1.342,0-2.008c-0.92,0-1.79,0-2.699,0
		c0,0.694,0,1.334,0,2.008C110.074,48.555,110.925,48.555,111.867,48.555z"/>
</g>
</svg>
