<?xml version="1.0" encoding="utf-8"?>
<!-- Generator: Adobe Illustrator 16.0.0, SVG Export Plug-In . SVG Version: 6.00 Build 0)  -->
<!DOCTYPE svg PUBLIC "-//W3C//DTD SVG 1.1//EN" "http://www.w3.org/Graphics/SVG/1.1/DTD/svg11.dtd">
<svg version="1.1" id="Layer_1" xmlns="http://www.w3.org/2000/svg" xmlns:xlink="http://www.w3.org/1999/xlink" x="0px" y="0px"
	 width="22px" height="22px" viewBox="0 0 22 22" enable-background="new 0 0 22 22" xml:space="preserve">
<path fill-rule="evenodd" clip-rule="evenodd" fill="#B9B9B9" d="M2.104,12.833c0.157,0,0.292-0.003,0.425,0
	c1.167,0.026,2.335,0.051,3.502,0.08c0.104,0.003,0.176-0.032,0.251-0.099c0.29-0.249,0.465-0.57,0.601-0.919
	c0.042-0.106,0.092-0.21,0.156-0.356c0.045,0.248,0.083,0.451,0.12,0.655c0.238,1.367,0.479,2.738,0.716,4.106
	c0.011,0.06,0.022,0.118,0.031,0.176c0.06,0.32,0.353,0.602,0.671,0.65c0.216,0.033,0.384-0.044,0.521-0.199
	c0.194-0.22,0.306-0.482,0.37-0.764c0.558-2.449,1.11-4.899,1.665-7.351c0.014-0.062,0.031-0.123,0.076-0.188
	c0.054,0.209,0.109,0.415,0.163,0.624c0.234,0.924,0.467,1.85,0.702,2.773c0.132,0.52,0.527,0.831,1.067,0.829
	c0.848-0.005,1.694-0.017,2.544-0.031c0.089-0.001,0.148,0.021,0.212,0.099c0.43,0.573,1.203,0.777,1.871,0.505
	c0.658-0.267,1.07-0.944,1.002-1.638c-0.075-0.732-0.618-1.314-1.342-1.436c-0.741-0.123-1.47,0.275-1.746,0.972
	c-0.051,0.127-0.111,0.158-0.242,0.155c-0.68-0.006-1.362-0.006-2.044,0c-0.111,0-0.162-0.022-0.192-0.144
	c-0.523-2.133-1.057-4.267-1.583-6.398c-0.046-0.191-0.172-0.292-0.35-0.325c-0.199-0.037-0.386,0.013-0.475,0.201
	c-0.087,0.188-0.139,0.396-0.185,0.598c-0.25,1.084-0.495,2.171-0.742,3.258c-0.38,1.675-0.76,3.35-1.143,5.026
	c-0.005,0.025-0.018,0.051-0.051,0.072c-0.083-0.468-0.165-0.938-0.247-1.408c-0.224-1.26-0.446-2.52-0.67-3.78
	C7.72,8.358,7.583,8.235,7.379,8.215C7.13,8.193,6.919,8.318,6.833,8.528c-0.39,0.946-0.784,1.892-1.169,2.84
	c-0.041,0.095-0.094,0.109-0.182,0.109c-1.002-0.004-2.005-0.006-3.007-0.004c-0.306,0.001-0.611,0.007-0.916,0.018
	c-0.095,0.004-0.14-0.027-0.179-0.114c-0.485-1.114-0.853-2.264-1.008-3.472c-0.239-1.87,0.166-3.577,1.366-5.053
	c0.905-1.114,2.08-1.781,3.51-1.973c1.806-0.243,3.356,0.332,4.7,1.516c0.377,0.332,0.71,0.717,1.067,1.081
	c0.139-0.161,0.288-0.346,0.45-0.523c0.91-0.979,1.975-1.718,3.301-1.991c2.064-0.423,3.849,0.122,5.294,1.668
	c0.946,1.008,1.44,2.235,1.593,3.601c0.12,1.072-0.046,2.12-0.342,3.145c-0.628,2.18-1.679,4.146-3.079,5.923
	c-1.928,2.446-4.314,4.341-7.037,5.822c-0.154,0.086-0.288,0.062-0.437-0.02c-1.525-0.836-2.956-1.804-4.271-2.943
	c-1.657-1.436-3.065-3.079-4.18-4.968C2.244,13.078,2.18,12.966,2.104,12.833z"/>
</svg>
